<?xml version="1.0" encoding="utf-8" standalone="no"?>
<!DOCTYPE svg PUBLIC "-//W3C//DTD SVG 1.1//EN"
  "http://www.w3.org/Graphics/SVG/1.1/DTD/svg11.dtd">
<svg xmlns:xlink="http://www.w3.org/1999/xlink" width="1296pt" height="432pt" viewBox="0 0 1296 432" xmlns="http://www.w3.org/2000/svg" version="1.1">
 <metadata>
  <rdf:RDF xmlns:dc="http://purl.org/dc/elements/1.1/" xmlns:cc="http://creativecommons.org/ns#" xmlns:rdf="http://www.w3.org/1999/02/22-rdf-syntax-ns#">
   <cc:Work>
    <dc:type rdf:resource="http://purl.org/dc/dcmitype/StillImage"/>
    <dc:date>2024-11-18T12:05:27.069310</dc:date>
    <dc:format>image/svg+xml</dc:format>
    <dc:creator>
     <cc:Agent>
      <dc:title>Matplotlib v3.8.4, https://matplotlib.org/</dc:title>
     </cc:Agent>
    </dc:creator>
   </cc:Work>
  </rdf:RDF>
 </metadata>
 <defs>
  <style type="text/css">*{stroke-linejoin: round; stroke-linecap: butt}</style>
 </defs>
 <g id="figure_1">
  <g id="patch_1">
   <path d="M 0 432 
L 1296 432 
L 1296 0 
L 0 0 
z
" style="fill: #ffffff"/>
  </g>
  <g id="axes_1">
   <g id="patch_2">
    <path d="M 49.5 384.66 
L 426.648573 384.66 
L 426.648573 27.65625 
L 49.5 27.65625 
z
" style="fill: #ffffff"/>
   </g>
   <g id="matplotlib.axis_1">
    <g id="xtick_1">
     <g id="text_1">
      <text style="fill: #262626; font: 11px 'Arial'; text-anchor: middle" x="101.527412" y="402.033594" transform="rotate(-0 101.527412 402.033594)">−0.05</text>
     </g>
    </g>
    <g id="xtick_2">
     <g id="text_2">
      <text style="fill: #262626; font: 11px 'Arial'; text-anchor: middle" x="179.883175" y="402.033594" transform="rotate(-0 179.883175 402.033594)">0.00</text>
     </g>
    </g>
    <g id="xtick_3">
     <g id="text_3">
      <text style="fill: #262626; font: 11px 'Arial'; text-anchor: middle" x="258.238937" y="402.033594" transform="rotate(-0 258.238937 402.033594)">0.05</text>
     </g>
    </g>
    <g id="xtick_4">
     <g id="text_4">
      <text style="fill: #262626; font: 11px 'Arial'; text-anchor: middle" x="336.5947" y="402.033594" transform="rotate(-0 336.5947 402.033594)">0.10</text>
     </g>
    </g>
    <g id="xtick_5">
     <g id="text_5">
      <text style="fill: #262626; font: 11px 'Arial'; text-anchor: middle" x="414.950463" y="402.033594" transform="rotate(-0 414.950463 402.033594)">0.15</text>
     </g>
    </g>
    <g id="text_6">
     <text style="fill: #262626; font: 12px 'Arial'; text-anchor: middle" x="238.074286" y="416.809219" transform="rotate(-0 238.074286 416.809219)">Mean Difference</text>
    </g>
   </g>
   <g id="matplotlib.axis_2">
    <g id="ytick_1">
     <g id="text_7">
      <text style="fill: #262626; font: 11px 'Arial'; text-anchor: end" x="40" y="388.596797" transform="rotate(-0 40 388.596797)">0</text>
     </g>
    </g>
    <g id="ytick_2">
     <g id="text_8">
      <text style="fill: #262626; font: 11px 'Arial'; text-anchor: end" x="40" y="317.762719" transform="rotate(-0 40 317.762719)">5</text>
     </g>
    </g>
    <g id="ytick_3">
     <g id="text_9">
      <text style="fill: #262626; font: 11px 'Arial'; text-anchor: end" x="40" y="246.928642" transform="rotate(-0 40 246.928642)">10</text>
     </g>
    </g>
    <g id="ytick_4">
     <g id="text_10">
      <text style="fill: #262626; font: 11px 'Arial'; text-anchor: end" x="40" y="176.094565" transform="rotate(-0 40 176.094565)">15</text>
     </g>
    </g>
    <g id="ytick_5">
     <g id="text_11">
      <text style="fill: #262626; font: 11px 'Arial'; text-anchor: end" x="40" y="105.260487" transform="rotate(-0 40 105.260487)">20</text>
     </g>
    </g>
    <g id="ytick_6">
     <g id="text_12">
      <text style="fill: #262626; font: 11px 'Arial'; text-anchor: end" x="40" y="34.42641" transform="rotate(-0 40 34.42641)">25</text>
     </g>
    </g>
    <g id="text_13">
     <text style="fill: #262626; font: 12px 'Arial'; text-anchor: middle" x="21.240312" y="206.158125" transform="rotate(-90 21.240312 206.158125)">Frequency</text>
    </g>
   </g>
   <g id="patch_3">
    <path d="M 66.643117 384.66 
L 78.071862 384.66 
L 78.071862 370.493185 
L 66.643117 370.493185 
z
" clip-path="url(#p44da73f774)" style="fill: #87ceeb; stroke: #000000; stroke-linejoin: miter"/>
   </g>
   <g id="patch_4">
    <path d="M 78.071862 384.66 
L 89.500606 384.66 
L 89.500606 384.66 
L 78.071862 384.66 
z
" clip-path="url(#p44da73f774)" style="fill: #87ceeb; stroke: #000000; stroke-linejoin: miter"/>
   </g>
   <g id="patch_5">
    <path d="M 89.500606 384.66 
L 100.929351 384.66 
L 100.929351 356.326369 
L 89.500606 356.326369 
z
" clip-path="url(#p44da73f774)" style="fill: #87ceeb; stroke: #000000; stroke-linejoin: miter"/>
   </g>
   <g id="patch_6">
    <path d="M 100.929351 384.66 
L 112.358095 384.66 
L 112.358095 356.326369 
L 100.929351 356.326369 
z
" clip-path="url(#p44da73f774)" style="fill: #87ceeb; stroke: #000000; stroke-linejoin: miter"/>
   </g>
   <g id="patch_7">
    <path d="M 112.358095 384.66 
L 123.78684 384.66 
L 123.78684 327.992738 
L 112.358095 327.992738 
z
" clip-path="url(#p44da73f774)" style="fill: #87ceeb; stroke: #000000; stroke-linejoin: miter"/>
   </g>
   <g id="patch_8">
    <path d="M 123.78684 384.66 
L 135.215585 384.66 
L 135.215585 299.659107 
L 123.78684 299.659107 
z
" clip-path="url(#p44da73f774)" style="fill: #87ceeb; stroke: #000000; stroke-linejoin: miter"/>
   </g>
   <g id="patch_9">
    <path d="M 135.215585 384.66 
L 146.644329 384.66 
L 146.644329 242.991845 
L 135.215585 242.991845 
z
" clip-path="url(#p44da73f774)" style="fill: #87ceeb; stroke: #000000; stroke-linejoin: miter"/>
   </g>
   <g id="patch_10">
    <path d="M 146.644329 384.66 
L 158.073074 384.66 
L 158.073074 172.157768 
L 146.644329 172.157768 
z
" clip-path="url(#p44da73f774)" style="fill: #87ceeb; stroke: #000000; stroke-linejoin: miter"/>
   </g>
   <g id="patch_11">
    <path d="M 158.073074 384.66 
L 169.501819 384.66 
L 169.501819 143.824137 
L 158.073074 143.824137 
z
" clip-path="url(#p44da73f774)" style="fill: #87ceeb; stroke: #000000; stroke-linejoin: miter"/>
   </g>
   <g id="patch_12">
    <path d="M 169.501819 384.66 
L 180.930563 384.66 
L 180.930563 172.157768 
L 169.501819 172.157768 
z
" clip-path="url(#p44da73f774)" style="fill: #87ceeb; stroke: #000000; stroke-linejoin: miter"/>
   </g>
   <g id="patch_13">
    <path d="M 180.930563 384.66 
L 192.359308 384.66 
L 192.359308 44.656429 
L 180.930563 44.656429 
z
" clip-path="url(#p44da73f774)" style="fill: #87ceeb; stroke: #000000; stroke-linejoin: miter"/>
   </g>
   <g id="patch_14">
    <path d="M 192.359308 384.66 
L 203.788053 384.66 
L 203.788053 200.491399 
L 192.359308 200.491399 
z
" clip-path="url(#p44da73f774)" style="fill: #87ceeb; stroke: #000000; stroke-linejoin: miter"/>
   </g>
   <g id="patch_15">
    <path d="M 203.788053 384.66 
L 215.216797 384.66 
L 215.216797 285.492292 
L 203.788053 285.492292 
z
" clip-path="url(#p44da73f774)" style="fill: #87ceeb; stroke: #000000; stroke-linejoin: miter"/>
   </g>
   <g id="patch_16">
    <path d="M 215.216797 384.66 
L 226.645542 384.66 
L 226.645542 271.325476 
L 215.216797 271.325476 
z
" clip-path="url(#p44da73f774)" style="fill: #87ceeb; stroke: #000000; stroke-linejoin: miter"/>
   </g>
   <g id="patch_17">
    <path d="M 226.645542 384.66 
L 238.074286 384.66 
L 238.074286 271.325476 
L 226.645542 271.325476 
z
" clip-path="url(#p44da73f774)" style="fill: #87ceeb; stroke: #000000; stroke-linejoin: miter"/>
   </g>
   <g id="patch_18">
    <path d="M 238.074286 384.66 
L 249.503031 384.66 
L 249.503031 285.492292 
L 238.074286 285.492292 
z
" clip-path="url(#p44da73f774)" style="fill: #87ceeb; stroke: #000000; stroke-linejoin: miter"/>
   </g>
   <g id="patch_19">
    <path d="M 249.503031 384.66 
L 260.931776 384.66 
L 260.931776 299.659107 
L 249.503031 299.659107 
z
" clip-path="url(#p44da73f774)" style="fill: #87ceeb; stroke: #000000; stroke-linejoin: miter"/>
   </g>
   <g id="patch_20">
    <path d="M 260.931776 384.66 
L 272.36052 384.66 
L 272.36052 327.992738 
L 260.931776 327.992738 
z
" clip-path="url(#p44da73f774)" style="fill: #87ceeb; stroke: #000000; stroke-linejoin: miter"/>
   </g>
   <g id="patch_21">
    <path d="M 272.36052 384.66 
L 283.789265 384.66 
L 283.789265 356.326369 
L 272.36052 356.326369 
z
" clip-path="url(#p44da73f774)" style="fill: #87ceeb; stroke: #000000; stroke-linejoin: miter"/>
   </g>
   <g id="patch_22">
    <path d="M 283.789265 384.66 
L 295.21801 384.66 
L 295.21801 299.659107 
L 283.789265 299.659107 
z
" clip-path="url(#p44da73f774)" style="fill: #87ceeb; stroke: #000000; stroke-linejoin: miter"/>
   </g>
   <g id="patch_23">
    <path d="M 295.21801 384.66 
L 306.646754 384.66 
L 306.646754 370.493185 
L 295.21801 370.493185 
z
" clip-path="url(#p44da73f774)" style="fill: #87ceeb; stroke: #000000; stroke-linejoin: miter"/>
   </g>
   <g id="patch_24">
    <path d="M 306.646754 384.66 
L 318.075499 384.66 
L 318.075499 356.326369 
L 306.646754 356.326369 
z
" clip-path="url(#p44da73f774)" style="fill: #87ceeb; stroke: #000000; stroke-linejoin: miter"/>
   </g>
   <g id="patch_25">
    <path d="M 318.075499 384.66 
L 329.504244 384.66 
L 329.504244 384.66 
L 318.075499 384.66 
z
" clip-path="url(#p44da73f774)" style="fill: #87ceeb; stroke: #000000; stroke-linejoin: miter"/>
   </g>
   <g id="patch_26">
    <path d="M 329.504244 384.66 
L 340.932988 384.66 
L 340.932988 384.66 
L 329.504244 384.66 
z
" clip-path="url(#p44da73f774)" style="fill: #87ceeb; stroke: #000000; stroke-linejoin: miter"/>
   </g>
   <g id="patch_27">
    <path d="M 340.932988 384.66 
L 352.361733 384.66 
L 352.361733 356.326369 
L 340.932988 356.326369 
z
" clip-path="url(#p44da73f774)" style="fill: #87ceeb; stroke: #000000; stroke-linejoin: miter"/>
   </g>
   <g id="patch_28">
    <path d="M 352.361733 384.66 
L 363.790477 384.66 
L 363.790477 370.493185 
L 352.361733 370.493185 
z
" clip-path="url(#p44da73f774)" style="fill: #87ceeb; stroke: #000000; stroke-linejoin: miter"/>
   </g>
   <g id="patch_29">
    <path d="M 363.790477 384.66 
L 375.219222 384.66 
L 375.219222 370.493185 
L 363.790477 370.493185 
z
" clip-path="url(#p44da73f774)" style="fill: #87ceeb; stroke: #000000; stroke-linejoin: miter"/>
   </g>
   <g id="patch_30">
    <path d="M 375.219222 384.66 
L 386.647967 384.66 
L 386.647967 356.326369 
L 375.219222 356.326369 
z
" clip-path="url(#p44da73f774)" style="fill: #87ceeb; stroke: #000000; stroke-linejoin: miter"/>
   </g>
   <g id="patch_31">
    <path d="M 386.647967 384.66 
L 398.076711 384.66 
L 398.076711 384.66 
L 386.647967 384.66 
z
" clip-path="url(#p44da73f774)" style="fill: #87ceeb; stroke: #000000; stroke-linejoin: miter"/>
   </g>
   <g id="patch_32">
    <path d="M 398.076711 384.66 
L 409.505456 384.66 
L 409.505456 356.326369 
L 398.076711 356.326369 
z
" clip-path="url(#p44da73f774)" style="fill: #87ceeb; stroke: #000000; stroke-linejoin: miter"/>
   </g>
   <g id="line2d_1">
    <path d="M 301.653134 384.66 
L 301.653134 27.65625 
" clip-path="url(#p44da73f774)" style="fill: none; stroke-dasharray: 5.55,2.4; stroke-dashoffset: 0; stroke: #ff0000; stroke-width: 1.5"/>
   </g>
   <g id="patch_33">
    <path d="M 49.5 384.66 
L 49.5 27.65625 
" style="fill: none; stroke: #262626; stroke-width: 1.25; stroke-linejoin: miter; stroke-linecap: square"/>
   </g>
   <g id="patch_34">
    <path d="M 426.648573 384.66 
L 426.648573 27.65625 
" style="fill: none; stroke: #262626; stroke-width: 1.25; stroke-linejoin: miter; stroke-linecap: square"/>
   </g>
   <g id="patch_35">
    <path d="M 49.5 384.66 
L 426.648573 384.66 
" style="fill: none; stroke: #262626; stroke-width: 1.25; stroke-linejoin: miter; stroke-linecap: square"/>
   </g>
   <g id="patch_36">
    <path d="M 49.5 27.65625 
L 426.648573 27.65625 
" style="fill: none; stroke: #262626; stroke-width: 1.25; stroke-linejoin: miter; stroke-linecap: square"/>
   </g>
   <g id="text_14">
    <text style="fill: #262626; font: 12px 'Arial'; text-anchor: middle" x="238.074286" y="21.65625" transform="rotate(-0 238.074286 21.65625)">Histogram of Mean Differences</text>
   </g>
   <g id="legend_1">
    <g id="patch_37">
     <path d="M 275.73201 52.279063 
L 418.948573 52.279063 
Q 421.148573 52.279063 421.148573 50.079063 
L 421.148573 35.35625 
Q 421.148573 33.15625 418.948573 33.15625 
L 275.73201 33.15625 
Q 273.53201 33.15625 273.53201 35.35625 
L 273.53201 50.079063 
Q 273.53201 52.279063 275.73201 52.279063 
z
" style="fill: #ffffff; opacity: 0.8; stroke: #cccccc; stroke-linejoin: miter"/>
    </g>
    <g id="line2d_2">
     <path d="M 277.93201 41.713906 
L 288.93201 41.713906 
L 299.93201 41.713906 
" style="fill: none; stroke-dasharray: 5.55,2.4; stroke-dashoffset: 0; stroke: #ff0000; stroke-width: 1.5"/>
    </g>
    <g id="text_15">
     <text style="fill: #262626; font: 11px 'Arial'; text-anchor: start" x="308.73201" y="45.563906" transform="rotate(-0 308.73201 45.563906)">2 SD Threshold (0.08)</text>
    </g>
   </g>
  </g>
  <g id="axes_2">
   <g id="patch_38">
    <path d="M 477.695714 384.66 
L 854.844286 384.66 
L 854.844286 27.65625 
L 477.695714 27.65625 
z
" style="fill: #ffffff"/>
   </g>
   <g id="matplotlib.axis_3">
    <g id="xtick_6">
     <g id="text_16">
      <text style="fill: #262626; font: 11px 'Arial'; text-anchor: middle" x="526.104283" y="402.033594" transform="rotate(-0 526.104283 402.033594)">−0.05</text>
     </g>
    </g>
    <g id="xtick_7">
     <g id="text_17">
      <text style="fill: #262626; font: 11px 'Arial'; text-anchor: middle" x="602.962219" y="402.033594" transform="rotate(-0 602.962219 402.033594)">0.00</text>
     </g>
    </g>
    <g id="xtick_8">
     <g id="text_18">
      <text style="fill: #262626; font: 11px 'Arial'; text-anchor: middle" x="679.820156" y="402.033594" transform="rotate(-0 679.820156 402.033594)">0.05</text>
     </g>
    </g>
    <g id="xtick_9">
     <g id="text_19">
      <text style="fill: #262626; font: 11px 'Arial'; text-anchor: middle" x="756.678092" y="402.033594" transform="rotate(-0 756.678092 402.033594)">0.10</text>
     </g>
    </g>
    <g id="xtick_10">
     <g id="text_20">
      <text style="fill: #262626; font: 11px 'Arial'; text-anchor: middle" x="833.536029" y="402.033594" transform="rotate(-0 833.536029 402.033594)">0.15</text>
     </g>
    </g>
    <g id="text_21">
     <text style="fill: #262626; font: 12px 'Arial'; text-anchor: middle" x="666.27" y="416.809219" transform="rotate(-0 666.27 416.809219)">Median Difference</text>
    </g>
   </g>
   <g id="matplotlib.axis_4">
    <g id="ytick_7">
     <g id="text_22">
      <text style="fill: #262626; font: 11px 'Arial'; text-anchor: end" x="468.195714" y="388.596797" transform="rotate(-0 468.195714 388.596797)">0</text>
     </g>
    </g>
    <g id="ytick_8">
     <g id="text_23">
      <text style="fill: #262626; font: 11px 'Arial'; text-anchor: end" x="468.195714" y="327.881873" transform="rotate(-0 468.195714 327.881873)">5</text>
     </g>
    </g>
    <g id="ytick_9">
     <g id="text_24">
      <text style="fill: #262626; font: 11px 'Arial'; text-anchor: end" x="468.195714" y="267.16695" transform="rotate(-0 468.195714 267.16695)">10</text>
     </g>
    </g>
    <g id="ytick_10">
     <g id="text_25">
      <text style="fill: #262626; font: 11px 'Arial'; text-anchor: end" x="468.195714" y="206.452026" transform="rotate(-0 468.195714 206.452026)">15</text>
     </g>
    </g>
    <g id="ytick_11">
     <g id="text_26">
      <text style="fill: #262626; font: 11px 'Arial'; text-anchor: end" x="468.195714" y="145.737103" transform="rotate(-0 468.195714 145.737103)">20</text>
     </g>
    </g>
    <g id="ytick_12">
     <g id="text_27">
      <text style="fill: #262626; font: 11px 'Arial'; text-anchor: end" x="468.195714" y="85.02218" transform="rotate(-0 468.195714 85.02218)">25</text>
     </g>
    </g>
    <g id="text_28">
     <text style="fill: #262626; font: 12px 'Arial'; text-anchor: middle" x="449.436026" y="206.158125" transform="rotate(-90 449.436026 206.158125)">Frequency</text>
    </g>
   </g>
   <g id="patch_39">
    <path d="M 494.83883 384.66 
L 506.267575 384.66 
L 506.267575 372.517015 
L 494.83883 372.517015 
z
" clip-path="url(#pb397b11bc4)" style="fill: #90ee90; stroke: #000000; stroke-linejoin: miter"/>
   </g>
   <g id="patch_40">
    <path d="M 506.267575 384.66 
L 517.69632 384.66 
L 517.69632 384.66 
L 506.267575 384.66 
z
" clip-path="url(#pb397b11bc4)" style="fill: #90ee90; stroke: #000000; stroke-linejoin: miter"/>
   </g>
   <g id="patch_41">
    <path d="M 517.69632 384.66 
L 529.125064 384.66 
L 529.125064 372.517015 
L 517.69632 372.517015 
z
" clip-path="url(#pb397b11bc4)" style="fill: #90ee90; stroke: #000000; stroke-linejoin: miter"/>
   </g>
   <g id="patch_42">
    <path d="M 529.125064 384.66 
L 540.553809 384.66 
L 540.553809 311.802092 
L 529.125064 311.802092 
z
" clip-path="url(#pb397b11bc4)" style="fill: #90ee90; stroke: #000000; stroke-linejoin: miter"/>
   </g>
   <g id="patch_43">
    <path d="M 540.553809 384.66 
L 551.982554 384.66 
L 551.982554 336.088061 
L 540.553809 336.088061 
z
" clip-path="url(#pb397b11bc4)" style="fill: #90ee90; stroke: #000000; stroke-linejoin: miter"/>
   </g>
   <g id="patch_44">
    <path d="M 551.982554 384.66 
L 563.411298 384.66 
L 563.411298 287.516122 
L 551.982554 287.516122 
z
" clip-path="url(#pb397b11bc4)" style="fill: #90ee90; stroke: #000000; stroke-linejoin: miter"/>
   </g>
   <g id="patch_45">
    <path d="M 563.411298 384.66 
L 574.840043 384.66 
L 574.840043 226.801199 
L 563.411298 226.801199 
z
" clip-path="url(#pb397b11bc4)" style="fill: #90ee90; stroke: #000000; stroke-linejoin: miter"/>
   </g>
   <g id="patch_46">
    <path d="M 574.840043 384.66 
L 586.268788 384.66 
L 586.268788 153.943291 
L 574.840043 153.943291 
z
" clip-path="url(#pb397b11bc4)" style="fill: #90ee90; stroke: #000000; stroke-linejoin: miter"/>
   </g>
   <g id="patch_47">
    <path d="M 586.268788 384.66 
L 597.697532 384.66 
L 597.697532 214.658214 
L 586.268788 214.658214 
z
" clip-path="url(#pb397b11bc4)" style="fill: #90ee90; stroke: #000000; stroke-linejoin: miter"/>
   </g>
   <g id="patch_48">
    <path d="M 597.697532 384.66 
L 609.126277 384.66 
L 609.126277 44.656429 
L 597.697532 44.656429 
z
" clip-path="url(#pb397b11bc4)" style="fill: #90ee90; stroke: #000000; stroke-linejoin: miter"/>
   </g>
   <g id="patch_49">
    <path d="M 609.126277 384.66 
L 620.555021 384.66 
L 620.555021 190.372245 
L 609.126277 190.372245 
z
" clip-path="url(#pb397b11bc4)" style="fill: #90ee90; stroke: #000000; stroke-linejoin: miter"/>
   </g>
   <g id="patch_50">
    <path d="M 620.555021 384.66 
L 631.983766 384.66 
L 631.983766 311.802092 
L 620.555021 311.802092 
z
" clip-path="url(#pb397b11bc4)" style="fill: #90ee90; stroke: #000000; stroke-linejoin: miter"/>
   </g>
   <g id="patch_51">
    <path d="M 631.983766 384.66 
L 643.412511 384.66 
L 643.412511 311.802092 
L 631.983766 311.802092 
z
" clip-path="url(#pb397b11bc4)" style="fill: #90ee90; stroke: #000000; stroke-linejoin: miter"/>
   </g>
   <g id="patch_52">
    <path d="M 643.412511 384.66 
L 654.841255 384.66 
L 654.841255 275.373138 
L 643.412511 275.373138 
z
" clip-path="url(#pb397b11bc4)" style="fill: #90ee90; stroke: #000000; stroke-linejoin: miter"/>
   </g>
   <g id="patch_53">
    <path d="M 654.841255 384.66 
L 666.27 384.66 
L 666.27 323.945077 
L 654.841255 323.945077 
z
" clip-path="url(#pb397b11bc4)" style="fill: #90ee90; stroke: #000000; stroke-linejoin: miter"/>
   </g>
   <g id="patch_54">
    <path d="M 666.27 384.66 
L 677.698745 384.66 
L 677.698745 287.516122 
L 666.27 287.516122 
z
" clip-path="url(#pb397b11bc4)" style="fill: #90ee90; stroke: #000000; stroke-linejoin: miter"/>
   </g>
   <g id="patch_55">
    <path d="M 677.698745 384.66 
L 689.127489 384.66 
L 689.127489 336.088061 
L 677.698745 336.088061 
z
" clip-path="url(#pb397b11bc4)" style="fill: #90ee90; stroke: #000000; stroke-linejoin: miter"/>
   </g>
   <g id="patch_56">
    <path d="M 689.127489 384.66 
L 700.556234 384.66 
L 700.556234 360.374031 
L 689.127489 360.374031 
z
" clip-path="url(#pb397b11bc4)" style="fill: #90ee90; stroke: #000000; stroke-linejoin: miter"/>
   </g>
   <g id="patch_57">
    <path d="M 700.556234 384.66 
L 711.984979 384.66 
L 711.984979 336.088061 
L 700.556234 336.088061 
z
" clip-path="url(#pb397b11bc4)" style="fill: #90ee90; stroke: #000000; stroke-linejoin: miter"/>
   </g>
   <g id="patch_58">
    <path d="M 711.984979 384.66 
L 723.413723 384.66 
L 723.413723 348.231046 
L 711.984979 348.231046 
z
" clip-path="url(#pb397b11bc4)" style="fill: #90ee90; stroke: #000000; stroke-linejoin: miter"/>
   </g>
   <g id="patch_59">
    <path d="M 723.413723 384.66 
L 734.842468 384.66 
L 734.842468 360.374031 
L 723.413723 360.374031 
z
" clip-path="url(#pb397b11bc4)" style="fill: #90ee90; stroke: #000000; stroke-linejoin: miter"/>
   </g>
   <g id="patch_60">
    <path d="M 734.842468 384.66 
L 746.271212 384.66 
L 746.271212 372.517015 
L 734.842468 372.517015 
z
" clip-path="url(#pb397b11bc4)" style="fill: #90ee90; stroke: #000000; stroke-linejoin: miter"/>
   </g>
   <g id="patch_61">
    <path d="M 746.271212 384.66 
L 757.699957 384.66 
L 757.699957 384.66 
L 746.271212 384.66 
z
" clip-path="url(#pb397b11bc4)" style="fill: #90ee90; stroke: #000000; stroke-linejoin: miter"/>
   </g>
   <g id="patch_62">
    <path d="M 757.699957 384.66 
L 769.128702 384.66 
L 769.128702 384.66 
L 757.699957 384.66 
z
" clip-path="url(#pb397b11bc4)" style="fill: #90ee90; stroke: #000000; stroke-linejoin: miter"/>
   </g>
   <g id="patch_63">
    <path d="M 769.128702 384.66 
L 780.557446 384.66 
L 780.557446 372.517015 
L 769.128702 372.517015 
z
" clip-path="url(#pb397b11bc4)" style="fill: #90ee90; stroke: #000000; stroke-linejoin: miter"/>
   </g>
   <g id="patch_64">
    <path d="M 780.557446 384.66 
L 791.986191 384.66 
L 791.986191 360.374031 
L 780.557446 360.374031 
z
" clip-path="url(#pb397b11bc4)" style="fill: #90ee90; stroke: #000000; stroke-linejoin: miter"/>
   </g>
   <g id="patch_65">
    <path d="M 791.986191 384.66 
L 803.414936 384.66 
L 803.414936 360.374031 
L 791.986191 360.374031 
z
" clip-path="url(#pb397b11bc4)" style="fill: #90ee90; stroke: #000000; stroke-linejoin: miter"/>
   </g>
   <g id="patch_66">
    <path d="M 803.414936 384.66 
L 814.84368 384.66 
L 814.84368 372.517015 
L 803.414936 372.517015 
z
" clip-path="url(#pb397b11bc4)" style="fill: #90ee90; stroke: #000000; stroke-linejoin: miter"/>
   </g>
   <g id="patch_67">
    <path d="M 814.84368 384.66 
L 826.272425 384.66 
L 826.272425 384.66 
L 814.84368 384.66 
z
" clip-path="url(#pb397b11bc4)" style="fill: #90ee90; stroke: #000000; stroke-linejoin: miter"/>
   </g>
   <g id="patch_68">
    <path d="M 826.272425 384.66 
L 837.70117 384.66 
L 837.70117 360.374031 
L 826.272425 360.374031 
z
" clip-path="url(#pb397b11bc4)" style="fill: #90ee90; stroke: #000000; stroke-linejoin: miter"/>
   </g>
   <g id="line2d_3">
    <path d="M 725.52287 384.66 
L 725.52287 27.65625 
" clip-path="url(#pb397b11bc4)" style="fill: none; stroke-dasharray: 5.55,2.4; stroke-dashoffset: 0; stroke: #ff0000; stroke-width: 1.5"/>
   </g>
   <g id="patch_69">
    <path d="M 477.695714 384.66 
L 477.695714 27.65625 
" style="fill: none; stroke: #262626; stroke-width: 1.25; stroke-linejoin: miter; stroke-linecap: square"/>
   </g>
   <g id="patch_70">
    <path d="M 854.844286 384.66 
L 854.844286 27.65625 
" style="fill: none; stroke: #262626; stroke-width: 1.25; stroke-linejoin: miter; stroke-linecap: square"/>
   </g>
   <g id="patch_71">
    <path d="M 477.695714 384.66 
L 854.844286 384.66 
" style="fill: none; stroke: #262626; stroke-width: 1.25; stroke-linejoin: miter; stroke-linecap: square"/>
   </g>
   <g id="patch_72">
    <path d="M 477.695714 27.65625 
L 854.844286 27.65625 
" style="fill: none; stroke: #262626; stroke-width: 1.25; stroke-linejoin: miter; stroke-linecap: square"/>
   </g>
   <g id="text_29">
    <text style="fill: #262626; font: 12px 'Arial'; text-anchor: middle" x="666.27" y="21.65625" transform="rotate(-0 666.27 21.65625)">Histogram of Median Differences</text>
   </g>
   <g id="legend_2">
    <g id="patch_73">
     <path d="M 703.927724 52.279063 
L 847.144286 52.279063 
Q 849.344286 52.279063 849.344286 50.079063 
L 849.344286 35.35625 
Q 849.344286 33.15625 847.144286 33.15625 
L 703.927724 33.15625 
Q 701.727724 33.15625 701.727724 35.35625 
L 701.727724 50.079063 
Q 701.727724 52.279063 703.927724 52.279063 
z
" style="fill: #ffffff; opacity: 0.8; stroke: #cccccc; stroke-linejoin: miter"/>
    </g>
    <g id="line2d_4">
     <path d="M 706.127724 41.713906 
L 717.127724 41.713906 
L 728.127724 41.713906 
" style="fill: none; stroke-dasharray: 5.55,2.4; stroke-dashoffset: 0; stroke: #ff0000; stroke-width: 1.5"/>
    </g>
    <g id="text_30">
     <text style="fill: #262626; font: 11px 'Arial'; text-anchor: start" x="736.927724" y="45.563906" transform="rotate(-0 736.927724 45.563906)">2 SD Threshold (0.08)</text>
    </g>
   </g>
  </g>
  <g id="axes_3">
   <g id="patch_74">
    <path d="M 905.891427 384.66 
L 1283.04 384.66 
L 1283.04 27.65625 
L 905.891427 27.65625 
z
" style="fill: #ffffff"/>
   </g>
   <g id="matplotlib.axis_5">
    <g id="xtick_11">
     <g id="text_31">
      <text style="fill: #262626; font: 11px 'Arial'; text-anchor: middle" x="952.361179" y="402.033594" transform="rotate(-0 952.361179 402.033594)">0.00</text>
     </g>
    </g>
    <g id="xtick_12">
     <g id="text_32">
      <text style="fill: #262626; font: 11px 'Arial'; text-anchor: middle" x="999.649696" y="402.033594" transform="rotate(-0 999.649696 402.033594)">0.05</text>
     </g>
    </g>
    <g id="xtick_13">
     <g id="text_33">
      <text style="fill: #262626; font: 11px 'Arial'; text-anchor: middle" x="1046.938213" y="402.033594" transform="rotate(-0 1046.938213 402.033594)">0.10</text>
     </g>
    </g>
    <g id="xtick_14">
     <g id="text_34">
      <text style="fill: #262626; font: 11px 'Arial'; text-anchor: middle" x="1094.22673" y="402.033594" transform="rotate(-0 1094.22673 402.033594)">0.15</text>
     </g>
    </g>
    <g id="xtick_15">
     <g id="text_35">
      <text style="fill: #262626; font: 11px 'Arial'; text-anchor: middle" x="1141.515246" y="402.033594" transform="rotate(-0 1141.515246 402.033594)">0.20</text>
     </g>
    </g>
    <g id="xtick_16">
     <g id="text_36">
      <text style="fill: #262626; font: 11px 'Arial'; text-anchor: middle" x="1188.803763" y="402.033594" transform="rotate(-0 1188.803763 402.033594)">0.25</text>
     </g>
    </g>
    <g id="xtick_17">
     <g id="text_37">
      <text style="fill: #262626; font: 11px 'Arial'; text-anchor: middle" x="1236.09228" y="402.033594" transform="rotate(-0 1236.09228 402.033594)">0.30</text>
     </g>
    </g>
    <g id="text_38">
     <text style="fill: #262626; font: 12px 'Arial'; text-anchor: middle" x="1094.465714" y="416.809219" transform="rotate(-0 1094.465714 416.809219)">Max Difference</text>
    </g>
   </g>
   <g id="matplotlib.axis_6">
    <g id="ytick_13">
     <g id="text_39">
      <text style="fill: #262626; font: 11px 'Arial'; text-anchor: end" x="896.391427" y="388.596797" transform="rotate(-0 896.391427 388.596797)">0</text>
     </g>
    </g>
    <g id="ytick_14">
     <g id="text_40">
      <text style="fill: #262626; font: 11px 'Arial'; text-anchor: end" x="896.391427" y="343.262987" transform="rotate(-0 896.391427 343.262987)">2</text>
     </g>
    </g>
    <g id="ytick_15">
     <g id="text_41">
      <text style="fill: #262626; font: 11px 'Arial'; text-anchor: end" x="896.391427" y="297.929178" transform="rotate(-0 896.391427 297.929178)">4</text>
     </g>
    </g>
    <g id="ytick_16">
     <g id="text_42">
      <text style="fill: #262626; font: 11px 'Arial'; text-anchor: end" x="896.391427" y="252.595368" transform="rotate(-0 896.391427 252.595368)">6</text>
     </g>
    </g>
    <g id="ytick_17">
     <g id="text_43">
      <text style="fill: #262626; font: 11px 'Arial'; text-anchor: end" x="896.391427" y="207.261559" transform="rotate(-0 896.391427 207.261559)">8</text>
     </g>
    </g>
    <g id="ytick_18">
     <g id="text_44">
      <text style="fill: #262626; font: 11px 'Arial'; text-anchor: end" x="896.391427" y="161.927749" transform="rotate(-0 896.391427 161.927749)">10</text>
     </g>
    </g>
    <g id="ytick_19">
     <g id="text_45">
      <text style="fill: #262626; font: 11px 'Arial'; text-anchor: end" x="896.391427" y="116.59394" transform="rotate(-0 896.391427 116.59394)">12</text>
     </g>
    </g>
    <g id="ytick_20">
     <g id="text_46">
      <text style="fill: #262626; font: 11px 'Arial'; text-anchor: end" x="896.391427" y="71.26013" transform="rotate(-0 896.391427 71.26013)">14</text>
     </g>
    </g>
    <g id="text_47">
     <text style="fill: #262626; font: 12px 'Arial'; text-anchor: middle" x="877.63174" y="206.158125" transform="rotate(-90 877.63174 206.158125)">Frequency</text>
    </g>
   </g>
   <g id="patch_75">
    <path d="M 923.034544 384.66 
L 934.463289 384.66 
L 934.463289 316.659286 
L 923.034544 316.659286 
z
" clip-path="url(#p394e2664a8)" style="fill: #fa8072; stroke: #000000; stroke-linejoin: miter"/>
   </g>
   <g id="patch_76">
    <path d="M 934.463289 384.66 
L 945.892033 384.66 
L 945.892033 339.32619 
L 934.463289 339.32619 
z
" clip-path="url(#p394e2664a8)" style="fill: #fa8072; stroke: #000000; stroke-linejoin: miter"/>
   </g>
   <g id="patch_77">
    <path d="M 945.892033 384.66 
L 957.320778 384.66 
L 957.320778 225.991667 
L 945.892033 225.991667 
z
" clip-path="url(#p394e2664a8)" style="fill: #fa8072; stroke: #000000; stroke-linejoin: miter"/>
   </g>
   <g id="patch_78">
    <path d="M 957.320778 384.66 
L 968.749523 384.66 
L 968.749523 225.991667 
L 957.320778 225.991667 
z
" clip-path="url(#p394e2664a8)" style="fill: #fa8072; stroke: #000000; stroke-linejoin: miter"/>
   </g>
   <g id="patch_79">
    <path d="M 968.749523 384.66 
L 980.178267 384.66 
L 980.178267 248.658571 
L 968.749523 248.658571 
z
" clip-path="url(#p394e2664a8)" style="fill: #fa8072; stroke: #000000; stroke-linejoin: miter"/>
   </g>
   <g id="patch_80">
    <path d="M 980.178267 384.66 
L 991.607012 384.66 
L 991.607012 67.323333 
L 980.178267 67.323333 
z
" clip-path="url(#p394e2664a8)" style="fill: #fa8072; stroke: #000000; stroke-linejoin: miter"/>
   </g>
   <g id="patch_81">
    <path d="M 991.607012 384.66 
L 1003.035756 384.66 
L 1003.035756 67.323333 
L 991.607012 67.323333 
z
" clip-path="url(#p394e2664a8)" style="fill: #fa8072; stroke: #000000; stroke-linejoin: miter"/>
   </g>
   <g id="patch_82">
    <path d="M 1003.035756 384.66 
L 1014.464501 384.66 
L 1014.464501 44.656429 
L 1003.035756 44.656429 
z
" clip-path="url(#p394e2664a8)" style="fill: #fa8072; stroke: #000000; stroke-linejoin: miter"/>
   </g>
   <g id="patch_83">
    <path d="M 1014.464501 384.66 
L 1025.893246 384.66 
L 1025.893246 135.324048 
L 1014.464501 135.324048 
z
" clip-path="url(#p394e2664a8)" style="fill: #fa8072; stroke: #000000; stroke-linejoin: miter"/>
   </g>
   <g id="patch_84">
    <path d="M 1025.893246 384.66 
L 1037.32199 384.66 
L 1037.32199 112.657143 
L 1025.893246 112.657143 
z
" clip-path="url(#p394e2664a8)" style="fill: #fa8072; stroke: #000000; stroke-linejoin: miter"/>
   </g>
   <g id="patch_85">
    <path d="M 1037.32199 384.66 
L 1048.750735 384.66 
L 1048.750735 112.657143 
L 1037.32199 112.657143 
z
" clip-path="url(#p394e2664a8)" style="fill: #fa8072; stroke: #000000; stroke-linejoin: miter"/>
   </g>
   <g id="patch_86">
    <path d="M 1048.750735 384.66 
L 1060.17948 384.66 
L 1060.17948 180.657857 
L 1048.750735 180.657857 
z
" clip-path="url(#p394e2664a8)" style="fill: #fa8072; stroke: #000000; stroke-linejoin: miter"/>
   </g>
   <g id="patch_87">
    <path d="M 1060.17948 384.66 
L 1071.608224 384.66 
L 1071.608224 203.324762 
L 1060.17948 203.324762 
z
" clip-path="url(#p394e2664a8)" style="fill: #fa8072; stroke: #000000; stroke-linejoin: miter"/>
   </g>
   <g id="patch_88">
    <path d="M 1071.608224 384.66 
L 1083.036969 384.66 
L 1083.036969 203.324762 
L 1071.608224 203.324762 
z
" clip-path="url(#p394e2664a8)" style="fill: #fa8072; stroke: #000000; stroke-linejoin: miter"/>
   </g>
   <g id="patch_89">
    <path d="M 1083.036969 384.66 
L 1094.465714 384.66 
L 1094.465714 271.325476 
L 1083.036969 271.325476 
z
" clip-path="url(#p394e2664a8)" style="fill: #fa8072; stroke: #000000; stroke-linejoin: miter"/>
   </g>
   <g id="patch_90">
    <path d="M 1094.465714 384.66 
L 1105.894458 384.66 
L 1105.894458 293.992381 
L 1094.465714 293.992381 
z
" clip-path="url(#p394e2664a8)" style="fill: #fa8072; stroke: #000000; stroke-linejoin: miter"/>
   </g>
   <g id="patch_91">
    <path d="M 1105.894458 384.66 
L 1117.323203 384.66 
L 1117.323203 271.325476 
L 1105.894458 271.325476 
z
" clip-path="url(#p394e2664a8)" style="fill: #fa8072; stroke: #000000; stroke-linejoin: miter"/>
   </g>
   <g id="patch_92">
    <path d="M 1117.323203 384.66 
L 1128.751947 384.66 
L 1128.751947 316.659286 
L 1117.323203 316.659286 
z
" clip-path="url(#p394e2664a8)" style="fill: #fa8072; stroke: #000000; stroke-linejoin: miter"/>
   </g>
   <g id="patch_93">
    <path d="M 1128.751947 384.66 
L 1140.180692 384.66 
L 1140.180692 248.658571 
L 1128.751947 248.658571 
z
" clip-path="url(#p394e2664a8)" style="fill: #fa8072; stroke: #000000; stroke-linejoin: miter"/>
   </g>
   <g id="patch_94">
    <path d="M 1140.180692 384.66 
L 1151.609437 384.66 
L 1151.609437 271.325476 
L 1140.180692 271.325476 
z
" clip-path="url(#p394e2664a8)" style="fill: #fa8072; stroke: #000000; stroke-linejoin: miter"/>
   </g>
   <g id="patch_95">
    <path d="M 1151.609437 384.66 
L 1163.038181 384.66 
L 1163.038181 271.325476 
L 1151.609437 271.325476 
z
" clip-path="url(#p394e2664a8)" style="fill: #fa8072; stroke: #000000; stroke-linejoin: miter"/>
   </g>
   <g id="patch_96">
    <path d="M 1163.038181 384.66 
L 1174.466926 384.66 
L 1174.466926 361.993095 
L 1163.038181 361.993095 
z
" clip-path="url(#p394e2664a8)" style="fill: #fa8072; stroke: #000000; stroke-linejoin: miter"/>
   </g>
   <g id="patch_97">
    <path d="M 1174.466926 384.66 
L 1185.895671 384.66 
L 1185.895671 361.993095 
L 1174.466926 361.993095 
z
" clip-path="url(#p394e2664a8)" style="fill: #fa8072; stroke: #000000; stroke-linejoin: miter"/>
   </g>
   <g id="patch_98">
    <path d="M 1185.895671 384.66 
L 1197.324415 384.66 
L 1197.324415 361.993095 
L 1185.895671 361.993095 
z
" clip-path="url(#p394e2664a8)" style="fill: #fa8072; stroke: #000000; stroke-linejoin: miter"/>
   </g>
   <g id="patch_99">
    <path d="M 1197.324415 384.66 
L 1208.75316 384.66 
L 1208.75316 361.993095 
L 1197.324415 361.993095 
z
" clip-path="url(#p394e2664a8)" style="fill: #fa8072; stroke: #000000; stroke-linejoin: miter"/>
   </g>
   <g id="patch_100">
    <path d="M 1208.75316 384.66 
L 1220.181905 384.66 
L 1220.181905 384.66 
L 1208.75316 384.66 
z
" clip-path="url(#p394e2664a8)" style="fill: #fa8072; stroke: #000000; stroke-linejoin: miter"/>
   </g>
   <g id="patch_101">
    <path d="M 1220.181905 384.66 
L 1231.610649 384.66 
L 1231.610649 361.993095 
L 1220.181905 361.993095 
z
" clip-path="url(#p394e2664a8)" style="fill: #fa8072; stroke: #000000; stroke-linejoin: miter"/>
   </g>
   <g id="patch_102">
    <path d="M 1231.610649 384.66 
L 1243.039394 384.66 
L 1243.039394 384.66 
L 1231.610649 384.66 
z
" clip-path="url(#p394e2664a8)" style="fill: #fa8072; stroke: #000000; stroke-linejoin: miter"/>
   </g>
   <g id="patch_103">
    <path d="M 1243.039394 384.66 
L 1254.468138 384.66 
L 1254.468138 361.993095 
L 1243.039394 361.993095 
z
" clip-path="url(#p394e2664a8)" style="fill: #fa8072; stroke: #000000; stroke-linejoin: miter"/>
   </g>
   <g id="patch_104">
    <path d="M 1254.468138 384.66 
L 1265.896883 384.66 
L 1265.896883 361.993095 
L 1254.468138 361.993095 
z
" clip-path="url(#p394e2664a8)" style="fill: #fa8072; stroke: #000000; stroke-linejoin: miter"/>
   </g>
   <g id="line2d_5">
    <path d="M 1086.238702 384.66 
L 1086.238702 27.65625 
" clip-path="url(#p394e2664a8)" style="fill: none; stroke-dasharray: 5.55,2.4; stroke-dashoffset: 0; stroke: #ff0000; stroke-width: 1.5"/>
   </g>
   <g id="patch_105">
    <path d="M 905.891427 384.66 
L 905.891427 27.65625 
" style="fill: none; stroke: #262626; stroke-width: 1.25; stroke-linejoin: miter; stroke-linecap: square"/>
   </g>
   <g id="patch_106">
    <path d="M 1283.04 384.66 
L 1283.04 27.65625 
" style="fill: none; stroke: #262626; stroke-width: 1.25; stroke-linejoin: miter; stroke-linecap: square"/>
   </g>
   <g id="patch_107">
    <path d="M 905.891427 384.66 
L 1283.04 384.66 
" style="fill: none; stroke: #262626; stroke-width: 1.25; stroke-linejoin: miter; stroke-linecap: square"/>
   </g>
   <g id="patch_108">
    <path d="M 905.891427 27.65625 
L 1283.04 27.65625 
" style="fill: none; stroke: #262626; stroke-width: 1.25; stroke-linejoin: miter; stroke-linecap: square"/>
   </g>
   <g id="text_48">
    <text style="fill: #262626; font: 12px 'Arial'; text-anchor: middle" x="1094.465714" y="21.65625" transform="rotate(-0 1094.465714 21.65625)">Histogram of Max Differences</text>
   </g>
   <g id="legend_3">
    <g id="patch_109">
     <path d="M 1132.123438 52.279063 
L 1275.34 52.279063 
Q 1277.54 52.279063 1277.54 50.079063 
L 1277.54 35.35625 
Q 1277.54 33.15625 1275.34 33.15625 
L 1132.123438 33.15625 
Q 1129.923438 33.15625 1129.923438 35.35625 
L 1129.923438 50.079063 
Q 1129.923438 52.279063 1132.123438 52.279063 
z
" style="fill: #ffffff; opacity: 0.8; stroke: #cccccc; stroke-linejoin: miter"/>
    </g>
    <g id="line2d_6">
     <path d="M 1134.323438 41.713906 
L 1145.323438 41.713906 
L 1156.323438 41.713906 
" style="fill: none; stroke-dasharray: 5.55,2.4; stroke-dashoffset: 0; stroke: #ff0000; stroke-width: 1.5"/>
    </g>
    <g id="text_49">
     <text style="fill: #262626; font: 11px 'Arial'; text-anchor: start" x="1165.123438" y="45.563906" transform="rotate(-0 1165.123438 45.563906)">2 SD Threshold (0.14)</text>
    </g>
   </g>
  </g>
 </g>
 <defs>
  <clipPath id="p44da73f774">
   <rect x="49.5" y="27.65625" width="377.148573" height="357.00375"/>
  </clipPath>
  <clipPath id="pb397b11bc4">
   <rect x="477.695714" y="27.65625" width="377.148573" height="357.00375"/>
  </clipPath>
  <clipPath id="p394e2664a8">
   <rect x="905.891427" y="27.65625" width="377.148573" height="357.00375"/>
  </clipPath>
 </defs>
</svg>
